<svg width="2560" height="2560" viewBox="0 0 2560 2560" fill="none" xmlns="http://www.w3.org/2000/svg">
<path d="M1814.4 1387.2C1786.69 1373.39 1756.16 1366.2 1725.2 1366.2C1694.24 1366.2 1663.71 1373.39 1636 1387.2C1526.16 1444.74 1404 1474.79 1280 1474.79C1156 1474.79 1033.84 1444.74 924 1387.2C896.292 1373.39 865.757 1366.2 834.8 1366.2C803.843 1366.2 773.308 1373.39 745.6 1387.2C630.371 1442.96 533.126 1529.97 464.949 1638.32C396.773 1746.66 360.408 1871.99 360 2000V2160C360 2213.04 381.071 2263.91 418.579 2301.42C456.086 2338.93 506.957 2360 560 2360H2000C2053.04 2360 2103.91 2338.93 2141.42 2301.42C2178.93 2263.91 2200 2213.04 2200 2160V2000C2199.59 1871.99 2163.23 1746.66 2095.05 1638.32C2026.87 1529.97 1929.63 1442.96 1814.4 1387.2Z" fill="black"/>
<path d="M1280 1240C1567.19 1240 1800 1007.19 1800 720C1800 432.812 1567.19 200 1280 200C992.812 200 760 432.812 760 720C760 1007.19 992.812 1240 1280 1240Z" fill="black"/>
</svg>
