<?xml version="1.0" encoding="UTF-8"?>
<svg id="Solid" xmlns="http://www.w3.org/2000/svg" viewBox="0 0 64 64">
  <path d="M6.5,32.48999H57.5c1.92999,0,3.5-1.57001,3.5-3.5v-3.57001c0-1.92999-1.57001-3.5-3.5-3.5h-6.36914l-5.6377-14.2608c-.30371-.77051-1.17578-1.15039-1.94629-.84277-.77051,.30371-1.14746,1.17578-.84277,1.94629l5.20142,13.15729H16.09448l5.20142-13.15729c.30469-.77051-.07227-1.64258-.84277-1.94629-.77246-.30762-1.64258,.07227-1.94629,.84277l-5.6377,14.2608H6.5c-1.92999,0-3.5,1.57001-3.5,3.5v3.57001c0,1.92999,1.57001,3.5,3.5,3.5Z"/>
  <path d="M16.16998,57.28998h31.66003c1.64996,0,3.07001-1.13,3.44-2.73999l4.37-19.06H8.35999l4.37,19.06c.37,1.60999,1.79004,2.73999,3.44,2.73999Zm24.14001-6.52997l1.95001-9.35004c.15997-.81,.95996-1.33002,1.77002-1.15997,.81,.16998,1.32996,.95996,1.15997,1.76996l-1.94,9.35004c-.15002,.70996-.77002,1.19-1.46997,1.19-.10004,0-.20001-.01001-.30005-.03003-.81-.16998-1.32996-.95996-1.16998-1.76996Zm-9.81-9.04004c0-.82996,.66998-1.5,1.5-1.5s1.5,.67004,1.5,1.5v9.34003c0,.83002-.66998,1.5-1.5,1.5s-1.5-.66998-1.5-1.5v-9.34003Zm-10.53003-1.46997c.81006-.17004,1.61005,.34998,1.77002,1.15997l1.95001,9.35004c.15997,.81-.35999,1.59998-1.16998,1.76996-.10004,.02002-.20001,.03003-.30005,.03003-.69995,0-1.31995-.48004-1.46997-1.19l-1.94-9.35004c-.16998-.81,.34998-1.59998,1.15997-1.76996Z"/>
</svg>