<svg width="800" height="800" viewBox="0 0 800 800" fill="none" xmlns="http://www.w3.org/2000/svg">
<path d="M123.077 269.231H676.923C683.043 269.231 688.913 266.799 693.241 262.472C697.569 258.144 700 252.274 700 246.154C700 240.033 697.569 234.164 693.241 229.836C688.913 225.508 683.043 223.077 676.923 223.077H123.077C116.957 223.077 111.087 225.508 106.759 229.836C102.431 234.164 100 240.033 100 246.154C100 252.274 102.431 258.144 106.759 262.472C111.087 266.799 116.957 269.231 123.077 269.231Z" fill="black"/>
<path d="M676.923 376.923H123.077C116.957 376.923 111.087 379.354 106.759 383.682C102.431 388.01 100 393.88 100 400C100 406.12 102.431 411.99 106.759 416.318C111.087 420.646 116.957 423.077 123.077 423.077H676.923C683.043 423.077 688.913 420.646 693.241 416.318C697.569 411.99 700 406.12 700 400C700 393.88 697.569 388.01 693.241 383.682C688.913 379.354 683.043 376.923 676.923 376.923Z" fill="black"/>
<path d="M676.923 530.769H123.077C116.957 530.769 111.087 533.201 106.759 537.528C102.431 541.856 100 547.726 100 553.846C100 559.967 102.431 565.836 106.759 570.164C111.087 574.492 116.957 576.923 123.077 576.923H676.923C683.043 576.923 688.913 574.492 693.241 570.164C697.569 565.836 700 559.967 700 553.846C700 547.726 697.569 541.856 693.241 537.528C688.913 533.201 683.043 530.769 676.923 530.769Z" fill="black"/>
</svg>
